<?xml version="1.0" encoding="UTF-8"?>
<svg id="Layer_2" data-name="Layer 2" xmlns="http://www.w3.org/2000/svg" viewBox="0 0 1232.54 217.57">
  <defs>
    <style>
      .cls-1 {
        stroke-width: 0px;
      }
    </style>
  </defs>
  <g id="Layer_1-2" data-name="Layer 1">
    <path class="cls-1" d="m0,.14c53.83,28.12,107.69,56.17,161.42,84.47,4.24,2.23,8.62,5.48,11.14,9.39,25.06,38.77,49.75,77.78,75.08,117.58-16.08,6.25-27.28,3.26-33.5-11.46C180.8,121.28,115.85,77.16,39.67,45.32,21.81,37.85,6.39,27.97,0,8.55V.14Z"/>
    <path class="cls-1" d="m360.06,145.79c-1.6,1.02-2.14,1.56-2.78,1.76q-58.84,17.6-92.41-42.04c5.17-3.43,10.53-6.99,14.08-9.35,21.25,7.11,14.86,46.12,50.76,34.19-13.12-27.46-25.6-53.58-39.58-82.85-23.22,14.73-44.94,28.51-68.04,43.16,25.46,40.66,50.6,80.81,75.97,121.34-17.59,6.12-26.57.34-34.71-13.32-22.63-37.97-46.82-75.04-71.86-114.79C234.05,56.98,276,30.44,324.14,0c-23.33,61.48,24.12,98.1,35.92,145.79Z"/>
    <path class="cls-1" d="m746.76,127.38c-13.03-5.19-24.28-7.45-32.71-13.51-15.76-11.34-31.58-13.22-47.44-3.31-19.05,11.9-20.27,31.32-16.04,50.56,4.09,18.61,17.62,28.17,36.88,28.95,19.96.8,33.85-7.35,40.96-31.1-12.68,0-23.63.87-34.3-.47-3.72-.47-6.74-6.39-10.08-9.81,3.26-2.84,6.39-7.94,9.8-8.12,15.57-.85,31.33-1.28,46.76.38,3.87.42,9.51,9.07,9.72,14.11.85,21.26-9.11,37.67-27.53,48.66-22.67,13.53-46.15,12.97-68.96,1.02-24.6-12.89-36.49-44.49-29.57-74.96,6.12-26.95,26.96-45.72,54.39-48.97,30.56-3.63,55.27,9.02,66.57,34.23.8,1.78.56,4.02,1.57,12.35Z"/>
    <path class="cls-1" d="m1015.16,82.41h23.93c0,24.69-1.18,48.98.56,73.07.73,10.15,4.93,23.04,12.28,29.14,16.68,13.84,39.81.06,40.77-23.85,1.04-25.66.23-51.4.23-78.33h23.3c0,31.58,2.59,62.95-.81,93.66-2.76,24.92-24.81,38.11-51.32,37.47-26.3-.63-45.92-14.82-48.33-40.8-2.69-29-.62-58.43-.62-90.36Z"/>
    <path class="cls-1" d="m1140.3,168.82c12.89,6.83,21.68,12.17,31.04,16.24,7.25,3.15,15.31,6.57,22.81,6.17,3.76-.2,10.91-10.01,9.79-13.1-2.5-6.89-8.13-14.07-14.5-17.88-9.55-5.71-21.1-8.04-31.27-12.89-14.32-6.82-20.27-18.86-19.04-34.37,1.26-15.87,10.39-25.27,25.28-30.21,30.63-10.18,57.36,2.68,65.92,38.37-13.31-5.72-22.52-10.27-32.16-13.63-7.49-2.61-15.57-5.15-23.25-4.8-3.04.14-9.06,9.61-7.87,12.37,2.75,6.35,8.13,12.84,14.19,16.26,9.73,5.49,23.2,6.11,30.82,13.23,9.36,8.74,18.43,21.46,20.19,33.52,2.27,15.49-9.37,26.97-24.98,32.46-31.24,10.99-61.91-4.88-66.97-41.74Z"/>
    <path class="cls-1" d="m986.62,120.47c-9.41-4.76-18.55-10.18-28.33-14.04-6.75-2.66-14.58-4.79-21.52-3.92-3.5.44-9.25,8.82-8.39,12.23,1.5,5.88,6.3,12.51,11.63,15.54,9.71,5.52,20.95,8.36,31.33,12.8,16.08,6.87,24.6,19.21,22.78,36.46-1.8,17.08-12.6,27.37-29.35,31.95-30.25,8.27-57.62-6.74-62.78-35.63,12.04-3.14,21.98-4.52,30.73,8.61,3.44,5.16,14.56,7.29,22.07,7.07,3.79-.11,11.22-9.76,10.19-12.96-2.23-6.92-7.69-14.33-13.96-18.15-9.49-5.79-21.01-8.22-31.26-12.94-14.41-6.63-20.74-18.38-19.79-33.98.97-16,10.4-25.53,24.88-30.73,29.3-10.52,57.25,2.71,65.13,30.55-1.12,2.37-2.25,4.75-3.37,7.12Z"/>
    <path class="cls-1" d="m529.65,81.17c22.93,0,44.14-.92,65.15.66,5.13.39,9.62,8.99,14.4,13.81-1.43,2.12-2.85,4.25-4.28,6.37h-49v29.6c11.92,13.85,42.13-10.82,46.6,24.1h-46.28v31.55c13.45,14.53,44.56-12.13,52.35,23.27h-78.93V81.17Z"/>
    <path class="cls-1" d="m190.18,217.57c-8.35-4.31-21.34-6.61-24.32-13.26-23.19-51.79-67.07-79.17-116.78-100.24-15.68-6.65-25.37-16.92-25.53-38.7,23.63,12.43,44.48,26.92,67.64,34.89,55.42,19.08,76.39,66.89,102.89,110.6-1.3,2.24-2.61,4.47-3.91,6.71Z"/>
    <path class="cls-1" d="m136.15,212.61c-13.47,3.94-22.43,1.64-31.49-11.07-9.26-12.99-22.23-24.91-36.21-32.74-15.13-8.48-23.77-18.3-24.54-35.22,44.66,11.02,73.53,35.69,92.24,79.03Z"/>
    <path class="cls-1" d="m843.17,93.4c-1.85-4.61-10.25-9.08-15.74-9.24-6.59-.19-17.51,2.65-19.32,7.06-16.03,39.06-30.44,78.76-47.56,124.15,13.75-3.93,27.99-4.85,28.9-8.77,7.06-30.42,30.85-20.03,49.26-20.55,5.55-.16,14.98,5.95,16.33,10.86,4.7,17.19,15.65,17.1,32.55,13.34-15.02-40.01-29.11-78.67-44.42-116.86Zm-37.15,69.91c6.29-17.32,11.61-31.98,18.92-52.13,7.34,20.12,12.78,35.03,19.03,52.13h-37.95Z"/>
    <path class="cls-1" d="m483.49,85.04c-21.75-3.86-44.3-3.36-67.28-4.81v130.51h25.18v-45.51c15.47-1.44,27.68-1.29,39.23-3.92,19.92-4.54,29.66-19.04,29.78-38.3.11-18.06-7.56-34.53-26.9-37.97Zm-3.72,48.94c-9.52,6.39-22.21,8.18-36.58,12.77v-48.31c14.85,4.87,27.49,6.8,36.98,13.24,3.71,2.52,3.49,19.69-.4,22.3Z"/>
  </g>
</svg>