<?xml version="1.0" encoding="UTF-8"?>
<svg id="Layer_2" data-name="Layer 2" xmlns="http://www.w3.org/2000/svg" viewBox="0 0 402.53 247.18">
  <defs>
    <style>
      .cls-1, .cls-2 {
        stroke-width: 0px;
      }

      .cls-2 {
        fill: #fff;
      }
    </style>
  </defs>
  <g id="Layer_1-2" data-name="Layer 1">
    <path class="cls-2" d="m0,9.7c7.13,22.08,24.36,33.32,44.31,41.81,85.09,36.22,157.65,86.39,194.88,176.04,6.95,16.74,19.46,20.14,37.42,13.04-28.29-45.25-55.87-89.62-83.86-133.72-2.82-4.44-7.71-8.14-12.44-10.67C120.29,64.01,60.13,32.11,0,.13m324.07,53.84c15.64,33.36,29.57,63.07,44.46,94.84-39.86,12.27-33.52-31.05-56.32-39.41-4.07,2.47-9.84,5.97-17.15,10.41,11.48,18.71,21.7,36.52,33.28,53.41,2.77,4.05,10.5,7.68,15.17,6.89,19.94-3.38,39.59-8.5,59.03-12.91-13.64-55.69-66.43-97.41-40.53-167.2-53.72,34.6-100.6,64.79-148.11,95.38,28,45.24,55.02,87.41,80.31,130.59,9.09,15.52,19.11,22.1,38.69,15.04-28.32-46.06-56.39-91.71-84.79-137.9,25.46-16.47,49.35-31.93,75.97-49.15ZM26.5,74.07c-.16,23.93,9.6,36.05,27.31,43.75,55.33,24.06,104.97,54.42,130.87,113.54,3.46,7.9,18.57,10.67,28.28,15.82,1.88-2.38,3.76-4.77,5.64-7.15-20.61-31.69-35.44-70.47-63.26-93.32-36.95-30.34-84.03-48.26-128.83-72.64Zm21.95,75.16c1.89,20.15,9.6,32.34,26.75,42.06,15.67,8.88,29.57,22.5,41.17,36.59,13.9,16.89,12.48,18.06,34.87,12.43-15.72-50.04-56.72-71.74-102.79-91.08Z"/>
    <path class="cls-1" d="m0,.13c60.13,31.98,120.29,63.89,180.3,96.07,4.73,2.54,9.63,6.24,12.44,10.67,27.99,44.1,55.57,88.46,83.86,133.72-17.96,7.1-30.47,3.7-37.42-13.04C201.95,137.9,129.4,87.73,44.31,51.51,24.36,43.02,7.13,31.78,0,9.7V.13Z"/>
    <path class="cls-1" d="m324.07,53.96c-26.61,17.22-50.51,32.68-75.97,49.15,28.4,46.18,56.47,91.84,84.79,137.9-19.58,7.06-29.6.48-38.69-15.04-25.29-43.18-52.32-85.35-80.31-130.59,47.51-30.6,94.38-60.78,148.11-95.38-25.9,69.79,26.89,111.51,40.53,167.2-19.43,4.41-39.08,9.52-59.03,12.91-4.67.79-12.39-2.84-15.17-6.89-11.58-16.88-21.8-34.7-33.28-53.41,7.31-4.44,13.08-7.94,17.15-10.41,22.8,8.36,16.46,51.67,56.32,39.41-14.9-31.78-28.82-61.49-44.46-94.84Z"/>
    <path class="cls-1" d="m26.5,74.07c44.8,24.38,91.89,42.29,128.83,72.64,27.82,22.85,42.65,61.63,63.26,93.32-1.88,2.38-3.76,4.77-5.64,7.15-9.71-5.15-24.82-7.92-28.28-15.82-25.9-59.12-75.54-89.48-130.87-113.54-17.71-7.7-27.47-19.83-27.31-43.75Z"/>
    <path class="cls-1" d="m48.45,149.23c46.07,19.34,87.07,41.04,102.79,91.08-22.39,5.63-20.97,4.46-34.87-12.43-11.6-14.09-25.5-27.71-41.17-36.59-17.15-9.72-24.86-21.91-26.75-42.06Z"/>
  </g>
</svg>