<?xml version="1.0" encoding="UTF-8"?>
<svg id="Layer_1" data-name="Layer 1" xmlns="http://www.w3.org/2000/svg" viewBox="0 0 500 500">
  <defs>
    <style>
      .cls-1 {
        stroke-width: 0px;
      }
    </style>
  </defs>
  <path class="cls-1" d="m42.28,124.64c62.11,32.44,124.26,64.82,186.25,97.47,4.89,2.57,9.94,6.33,12.86,10.83,28.92,44.74,57.4,89.75,86.63,135.66-18.55,7.21-31.47,3.76-38.66-13.23-38.46-90.96-113.42-141.86-201.31-178.6-20.6-8.61-38.4-20.01-45.77-42.42v-9.71Z"/>
  <path class="cls-1" d="m457.72,292.7c-1.84,1.18-2.47,1.8-3.21,2.03q-67.89,20.31-106.62-48.5c5.97-3.96,12.15-8.06,16.25-10.79,24.52,8.2,17.15,53.21,58.57,39.45-15.14-31.68-29.53-61.82-45.67-95.59-26.79,16.99-51.86,32.89-78.5,49.8,29.38,46.92,58.38,93.24,87.65,140-20.29,7.06-30.65.39-40.05-15.37-26.11-43.81-54.03-86.58-82.92-132.45,49.1-31.05,97.51-61.67,153.05-96.8-26.92,70.93,27.83,113.2,41.45,168.22Z"/>
  <path class="cls-1" d="m261.71,375.52c-9.64-4.98-24.62-7.63-28.06-15.3-26.76-59.75-77.38-91.35-134.74-115.66-18.09-7.67-29.28-19.53-29.45-44.65,27.26,14.35,51.32,31.06,78.05,40.26,63.95,22.01,88.14,77.18,118.72,127.62-1.5,2.58-3.01,5.16-4.51,7.74Z"/>
  <path class="cls-1" d="m199.37,369.8c-15.54,4.55-25.88,1.9-36.33-12.77-10.68-14.99-25.65-28.74-41.78-37.78-17.45-9.78-27.43-21.12-28.32-40.64,51.53,12.72,84.85,41.18,106.42,91.19Z"/>
</svg>